<svg xmlns="http://www.w3.org/2000/svg" width="75" height="47" viewBox="0 0 75 47" fill="none"><mask id="mask0_2318_1887" style="mask-type:alpha" maskUnits="userSpaceOnUse" x="0" y="0" width="75" height="47"><path d="M3.45491 0H3.28012C1.47402 0 0 1.38662 0 3.08786V43.1543C0 44.8555 1.47402 46.2421 3.28012 46.2421H3.45491C5.26684 46.2421 6.73503 44.8555 6.73503 43.1543V3.08786C6.73503 1.38662 5.26101 0 3.45491 0Z" fill="#A339A8"></path><path d="M36.3211 13.837C34.5092 13.837 33.0352 15.2703 33.0352 17.0298V43.0377C33.0352 44.7972 34.5092 46.2304 36.3211 46.2304C38.133 46.2304 39.6071 44.7972 39.6071 43.0377V17.0298C39.6071 15.2703 38.133 13.837 36.3211 13.837Z" fill="#A339A8"></path><path d="M36.3138 0.0525341C35.2593 0.0525341 34.2922 0.442886 33.4299 1.21776C32.5443 2.02177 32.0957 3.053 32.0957 4.28814C32.0957 5.52328 32.556 6.56616 33.4299 7.35269C34.2922 8.12757 35.2593 8.51792 36.3138 8.51792C37.3684 8.51792 38.3355 8.12757 39.1978 7.35269C40.0775 6.56034 40.5378 5.50581 40.5378 4.28814C40.5378 3.07048 40.0892 2.0276 39.1978 1.21776C38.3355 0.442886 37.3684 0.0525341 36.3138 0.0525341Z" fill="#A339A8"></path><path d="M63.5272 14.4663C63.4165 14.3964 63.2883 14.3323 63.1194 14.2741C62.9213 14.21 62.729 14.1517 62.5251 14.0993C62.5251 14.0993 62.4843 14.0876 62.4552 14.0818L62.3969 14.0701C62.3969 14.0701 62.3794 14.0701 62.3678 14.0643C61.3424 13.8196 60.282 13.6973 59.2158 13.6973C56.0639 13.6973 53.046 14.7926 50.7563 16.6977C50.5815 15.1072 49.1949 13.8779 47.482 13.8779C46.6372 13.8779 45.8099 14.2216 45.2273 14.8159C44.633 15.4218 44.33 16.2083 44.3708 17.0415C44.3825 17.292 44.3941 17.8047 44.4058 18.2883C44.4116 18.6611 44.4233 19.0107 44.4291 19.2205L44.464 20.1701C44.4873 20.6945 44.499 20.9566 44.499 21.5101V43.0202C44.499 44.7856 45.973 46.2246 47.7908 46.2246C49.6085 46.2246 51.0767 44.7856 51.0767 43.0202V29.6726C51.0767 27.7558 51.3156 26.107 51.7875 24.7786C52.0905 23.9221 52.4284 23.5901 52.9353 23.089C53.145 22.8793 53.3664 22.6637 53.5994 22.3957C54.3044 21.5975 55.1434 21.0033 56.0989 20.6304C57.6428 20.0361 59.3207 19.9429 60.9404 20.1759C61.022 20.1876 61.0977 20.1992 61.1676 20.2051L61.2608 20.24H61.3948C61.7968 20.3041 62.2921 20.2866 62.6708 20.1818C64.0982 19.838 65.0944 18.5912 65.0944 17.1463C65.0944 16.0394 64.4943 15.014 63.5272 14.4547V14.4663Z" fill="#A339A8"></path><path d="M70.782 13.837C68.9701 13.837 67.4961 15.2703 67.4961 17.0356V43.0959C67.4961 44.8613 68.9701 46.2945 70.782 46.2945C72.594 46.2945 74.068 44.8613 74.068 43.0959V17.0356C74.068 15.2703 72.594 13.837 70.782 13.837Z" fill="#A339A8"></path><path d="M70.7767 0.122379C69.7222 0.122379 68.7551 0.512731 67.8928 1.28761C67.0072 2.09162 66.5586 3.12284 66.5586 4.35799C66.5586 5.59313 67.0189 6.63601 67.8928 7.42254C68.7551 8.19742 69.7222 8.58777 70.7767 8.58777C71.8313 8.58777 72.8101 8.19742 73.6607 7.42254C74.5404 6.63018 75.0007 5.57565 75.0007 4.35799C75.0007 3.14032 74.5521 2.09744 73.6607 1.28761C72.8042 0.512731 71.8371 0.122379 70.7767 0.122379Z" fill="#A339A8"></path><path d="M29.93 17.3736C30.0349 16.5405 29.8077 15.719 29.2891 15.0548C28.2229 13.6915 26.2421 13.4468 24.8671 14.5071L8.58882 27.2489C7.8489 27.8199 7.41194 28.688 7.38281 29.6318C7.38281 29.6726 7.38281 29.7134 7.38281 29.7658V29.8415C7.38281 29.8823 7.38281 29.9173 7.38281 29.9581C7.41194 30.9019 7.8489 31.77 8.583 32.341L24.8671 45.0886C25.438 45.5314 26.1197 45.7469 26.7955 45.7469C27.7335 45.7469 28.6657 45.3333 29.2833 44.5409C29.8018 43.8767 30.029 43.0552 29.9242 42.2221C29.8193 41.389 29.3998 40.649 28.7298 40.1305L15.5278 29.7949L28.7298 19.4594C29.394 18.9467 29.8193 18.2009 29.9242 17.3678L29.93 17.3736Z" fill="#A339A8"></path></mask><g mask="url(#mask0_2318_1887)"><rect width="82.1016" height="49.311" transform="matrix(-1 0 0 1 77.2578 -1.63794)" fill="url(#paint0_linear_2318_1887)"></rect></g><defs><linearGradient id="paint0_linear_2318_1887" x1="82.1016" y1="0" x2="6.30271" y2="51.3081" gradientUnits="userSpaceOnUse"><stop stop-color="#DF2940"></stop><stop offset="0.29888" stop-color="#BA2FA4"></stop><stop offset="0.61888" stop-color="#7F47B2"></stop><stop offset="1" stop-color="#495CC0"></stop></linearGradient></defs></svg>